<svg xmlns="http://www.w3.org/2000/svg" width="33.555" height="18.682" viewBox="0 0 33.555 18.682">
  <g id="Group_16" data-name="Group 16" transform="translate(-1318.463 -498.659)">
    <path id="Path_18" data-name="Path 18" d="M23.583,3.308A1.849,1.849,0,0,1,26.2,5.924l-7.553,7.482a1.756,1.756,0,0,1-2.542,0L8.548,5.924a1.991,1.991,0,0,1,0-2.616,1.842,1.842,0,0,1,2.613,0l6.247,6.247Z" transform="translate(1315.699 525.399) rotate(-90)" fill="#2dd492" fill-rule="evenodd"/>
    <path id="Path_19" data-name="Path 19" d="M23.583,3.308A1.849,1.849,0,0,1,26.2,5.924l-7.553,7.482a1.756,1.756,0,0,1-2.542,0L8.548,5.924a1.991,1.991,0,0,1,0-2.616,1.842,1.842,0,0,1,2.613,0l6.247,6.247Z" transform="translate(1326.884 525.399) rotate(-90)" fill="#2dd492" fill-rule="evenodd"/>
    <path id="Path_20" data-name="Path 20" d="M23.583,3.308A1.849,1.849,0,0,1,26.2,5.924l-7.553,7.482a1.756,1.756,0,0,1-2.542,0L8.548,5.924a1.991,1.991,0,0,1,0-2.616,1.842,1.842,0,0,1,2.613,0l6.247,6.247Z" transform="translate(1338.069 525.399) rotate(-90)" fill="#2dd492" fill-rule="evenodd"/>
  </g>
</svg>
