<svg xmlns="http://www.w3.org/2000/svg" width="245.338" height="46.419" viewBox="0 0 245.338 46.419">
  <g id="logo_greeentech" transform="translate(-0.001)">
    <path id="Path_1" data-name="Path 1" d="M78.249,2.49H23.075a20.445,20.445,0,0,0-3.434.642,12.546,12.546,0,0,0,4.378,24.379h49.74c1.811,0,3.623,0,5.472-.113A12.418,12.418,0,0,0,89.382,8.566C86.929,4.415,83.08,2.49,78.249,2.49Zm4.944,19.285a8.462,8.462,0,0,1-4.831,1.283H24.019a8.142,8.142,0,0,1-7.7-4.831c-.113-.34-.226-.642-.34-.981H86.363A8.527,8.527,0,0,1,83.193,21.775ZM15.98,12.793A7.769,7.769,0,0,1,20.471,7.66a10.03,10.03,0,0,1,3.547-.642c18.19,0,36.267-.113,54.344-.113a7.953,7.953,0,0,1,7.7,4.906,1.715,1.715,0,0,1,.34.981H15.98Z" transform="translate(31.192 6.907)" fill="#2dd492"/>
    <path id="Path_2" data-name="Path 2" d="M14.113,22.951A8.055,8.055,0,0,1,4.6,16.724,7.541,7.541,0,0,1,5.7,10.648a8.22,8.22,0,0,1,7.17-3.736c.415-1.51.755-2.906,1.057-4.264C9.207,1.779,3.961,4.534,1.508,9.025A12.513,12.513,0,0,0,3.433,23.592a11.926,11.926,0,0,0,6.755,3.623,12.752,12.752,0,0,0,10.378-2.566c0,1.283.113,2.453,0,3.623A8.12,8.12,0,0,1,7.622,33.4c-.755-.642-1.4-1.623-2.151-2.34a2.235,2.235,0,0,0-3.095-.415,2.246,2.246,0,0,0-.34,3.095,12.389,12.389,0,0,0,10.68,5.774,12.539,12.539,0,0,0,12.3-12.076V9.893l-4.906,2.566A8.034,8.034,0,0,1,14.113,22.951Z" transform="translate(0 6.901)" fill="#2dd492"/>
    <path id="Path_3" data-name="Path 3" d="M57.012,2.491a12.466,12.466,0,0,0-12.3,14.643A12.336,12.336,0,0,0,58.937,27.285a10.61,10.61,0,0,0,6.529-3.321,2.64,2.64,0,0,0,.528-.642,2.238,2.238,0,0,0-3.736-2.264A8.014,8.014,0,0,1,50.823,20a33.014,33.014,0,0,1-1.7-2.906H69.541V15.171A12.532,12.532,0,0,0,57.012,2.491Zm-7.585,10.3C49.842,9.7,53.276,7.133,56.9,7.02c3.547-.113,7.057,2.453,7.7,5.774Z" transform="translate(123.453 6.906)" fill="#2dd492"/>
    <path id="Path_4" data-name="Path 4" d="M83.305,21.144A12.4,12.4,0,0,0,68.549,9.6a13,13,0,0,0-5.774,2.679V2.463A2.173,2.173,0,0,0,60.624.01,2.275,2.275,0,0,0,58.36,2.463V31.786a2.378,2.378,0,0,0,2.151,2.679c1.4,0,2.264-1.057,2.264-2.679V24.842A32.138,32.138,0,0,1,63,20.125a8.041,8.041,0,0,1,15.85,1.208c.226,3.547.113,6.944.113,10.491A2.445,2.445,0,0,0,81.117,34.5a2.333,2.333,0,0,0,2.34-2.453C83.419,28.314,83.419,24.8,83.305,21.144Z" transform="translate(161.882 0.028)" fill="#2dd492"/>
    <path id="Path_5" data-name="Path 5" d="M58.082,12.982A12.463,12.463,0,0,0,39.477,4.226a12.228,12.228,0,0,0-6.114,11.02c-.113,3.321-.113,6.529-.113,9.737a2.833,2.833,0,0,0,.34,1.4,2.186,2.186,0,0,0,2.453,1.057,2.326,2.326,0,0,0,1.7-2.34V15.057A8.037,8.037,0,0,1,53.78,14.3c.113,1.7,0,3.547,0,5.359V25.02a2.494,2.494,0,0,0,2.264,2.566,2.318,2.318,0,0,0,2.264-2.453c0-3.321,0-6.642-.113-9.85A15.428,15.428,0,0,0,58.082,12.982Z" transform="translate(92.23 6.907)" fill="#2dd492"/>
    <path id="Path_6" data-name="Path 6" d="M72.38,20.67a2.4,2.4,0,0,0-2.906.415A7.957,7.957,0,0,1,56.53,13.2,8.1,8.1,0,0,1,69.7,8.933,2.075,2.075,0,0,0,73.135,8.4a2.3,2.3,0,0,0-.868-2.981A12.27,12.27,0,0,0,63.4,2.517,12.577,12.577,0,0,0,51.85,15.047a26.707,26.707,0,0,0,.34,2.793,12.476,12.476,0,0,0,14,9.51,11.188,11.188,0,0,0,6.755-3.321A2.208,2.208,0,0,0,72.38,20.67Z" transform="translate(143.824 6.917)" fill="#2dd492"/>
    <path id="Path_7" data-name="Path 7" d="M52.817,29.965a13.746,13.746,0,0,1-3.095-.226,5.643,5.643,0,0,1-4.6-5.548v-9.85a1.025,1.025,0,0,1,.113-.528h1.7c1.4,0,2.793.113,4.189,0a2.215,2.215,0,0,0,0-4.415h-6V2.34A2.221,2.221,0,0,0,42.854,0,2.275,2.275,0,0,0,40.59,2.453v21.4a10.159,10.159,0,0,0,1.4,5.359c2.679,4.378,6.642,5.472,10.906,5.132a1.821,1.821,0,0,0,1.283-.528,2.064,2.064,0,0,0,.528-2.453A2.043,2.043,0,0,0,52.817,29.965Z" transform="translate(112.59)" fill="#2dd492"/>
    <path id="Path_8" data-name="Path 8" d="M19.571,2.527a17.735,17.735,0,0,0-2.453,0A10.007,10.007,0,0,0,7.8,11.4a52.236,52.236,0,0,0-.113,7.284H7.57v6.416a2.366,2.366,0,0,0,1.623,2.378,2.175,2.175,0,0,0,2.793-2.264c.113-4.189,0-8.227.113-12.3a5.8,5.8,0,0,1,5.359-5.887c.755-.113,1.51,0,2.264-.113A2.17,2.17,0,0,0,21.873,4.64,2.28,2.28,0,0,0,19.571,2.527Z" transform="translate(20.997 6.87)" fill="#2dd492"/>
    <path id="Path_9" data-name="Path 9" d="M16.808,2.311C12.845.914,9.3,1.9,6.2,4.348A5.515,5.515,0,0,0,4.279,7.254,7.331,7.331,0,0,0,4.09,9.292l.226.113a13.96,13.96,0,0,1,9.963-6.189c-.264.075-.377.075-.491.189a14.475,14.475,0,0,0-8.68,6.944.757.757,0,0,0,.264,1.17,4.262,4.262,0,0,0,3.434.528,7.651,7.651,0,0,0,4.831-4.076c1.132-1.925,2.076-3.925,3.925-5.321A1.414,1.414,0,0,0,16.808,2.311Z" transform="translate(11.344 4.633)" fill="#2dd492"/>
  </g>
</svg>
